<svg xmlns="http://www.w3.org/2000/svg" viewBox="0 0 32 32" width="32" height="32">
  <!-- Background circle -->
  <circle cx="16" cy="16" r="15" fill="#FF6B35" stroke="#E55A2B" stroke-width="1"/>
  
  <!-- Dandiya stick 1 (left) -->
  <rect x="8" y="6" width="2" height="20" fill="#8B4513" rx="1"/>
  <circle cx="9" cy="8" r="1.5" fill="#FFD700"/>
  <circle cx="9" cy="12" r="1.5" fill="#FFD700"/>
  <circle cx="9" cy="16" r="1.5" fill="#FFD700"/>
  <circle cx="9" cy="20" r="1.5" fill="#FFD700"/>
  <circle cx="9" cy="24" r="1.5" fill="#FFD700"/>
  
  <!-- Dandiya stick 2 (right) -->
  <rect x="22" y="6" width="2" height="20" fill="#8B4513" rx="1"/>
  <circle cx="23" cy="8" r="1.5" fill="#FFD700"/>
  <circle cx="23" cy="12" r="1.5" fill="#FFD700"/>
  <circle cx="23" cy="16" r="1.5" fill="#FFD700"/>
  <circle cx="23" cy="20" r="1.5" fill="#FFD700"/>
  <circle cx="23" cy="24" r="1.5" fill="#FFD700"/>
  
  <!-- Decorative elements -->
  <circle cx="16" cy="10" r="2" fill="#FFD700" opacity="0.8"/>
  <circle cx="16" cy="22" r="2" fill="#FFD700" opacity="0.8"/>
  
  <!-- Small decorative dots -->
  <circle cx="12" cy="14" r="0.8" fill="#FFFFFF" opacity="0.9"/>
  <circle cx="20" cy="14" r="0.8" fill="#FFFFFF" opacity="0.9"/>
  <circle cx="12" cy="18" r="0.8" fill="#FFFFFF" opacity="0.9"/>
  <circle cx="20" cy="18" r="0.8" fill="#FFFFFF" opacity="0.9"/>
</svg>
